<svg xmlns="http://www.w3.org/2000/svg" viewBox="14 12 169 173" role="img" aria-label="Garcia Location">
  <rect x="18.38" y="16.49" width="158.74" height="164.11" rx="16.67" ry="16.67" fill="#1B1D2E"></rect>
  <path d="m138.15,49.03l-6.03-5.37c-.86-.76-1.96-1.18-3.11-1.18h-34.79c-3.34-6.29-9.96-10.58-17.58-10.58-10.99,0-19.89,8.91-19.89,19.89s8.91,19.89,19.89,19.89c7.44,0,13.92-4.09,17.34-10.14h5.8c1.71,0,3.34-.73,4.49-2l.91-1.01c1.3-1.44,3.6-1.25,4.65.37l.43.67c.63.97,2.01,1.05,2.75.16l2.6-3.16c.38-.46,1.08-.45,1.45.01l2.63,3.33c.66.84,1.93.87,2.63.06l1.2-1.38c1.25-1.43,3.53-1.21,4.49.43l.35.61c.54.93,1.84,1.06,2.56.25l7.38-8.35c.65-.74.58-1.86-.15-2.52Z" fill="#F0A14B"></path>
  <g>
    <path d="m149.96,112.81h1.59c3.37,0,6.09-2.73,6.09-6.09s-2.73-6.09-6.09-6.09c0,0-4.37-.21-7.96,1.3-1.55-3.72-5.91-13.83-8.99-17.73-1.89-2.39-6.67-3.27-10.83-3.27h-49.24c-4.16,0-8.94.88-10.83,3.27-3.08,3.9-7.44,14.01-8.99,17.73-3.58-1.51-7.96-1.3-7.96-1.3-3.37,0-6.09,2.73-6.09,6.09s2.73,6.09,6.09,6.09h1.59c-4.65,3.36-7.68,8.83-7.68,15v26.98c0,5.05,4.1,9.15,9.15,9.15h6.44c5.05,0,9.15-4.1,9.15-9.15v-.86h67.5v.86c0,5.05,4.1,9.15,9.15,9.15h6.44c5.05,0,9.15-4.1,9.15-9.15v-26.98c0-6.18-3.03-11.64-7.68-15Z" fill="#FFFFFF"></path>
    <ellipse cx="55.05" cy="122.03" rx="9.13" ry="7.12" fill="#F0A14B"></ellipse>
    <ellipse cx="142.63" cy="122.03" rx="9.13" ry="7.12" fill="#F0A14B"></ellipse>
    <path d="m133.5,91.12c-1.39-2.52-2.35-6.8-10.35-6.8h-48.63c-8,0-8.96,4.28-10.35,6.8-1.39,2.52-6.4,16.62-6.4,16.62h82.12s-5.01-14.1-6.4-16.62Z" fill="#F0A14B"></path>
  </g>
  <path d="m129.72,112.83c0,6.24-5.06,11.3-11.3,11.3s-11.3-5.06-11.3-11.3,5.06-11.3,11.3-11.3,11.3,5.06,11.3,11.3Zm-11.3-15.08c-8.33,0-15.08,6.75-15.08,15.08s6.75,15.08,15.08,15.08,15.08-6.75,15.08-15.08-6.75-15.08-15.08-15.08Z" fill="#FFFFFF"></path>
  <circle cx="68.65" cy="51.79" r="4.34" fill="#F0A14B"></circle>
</svg>