<?xml version="1.0"?>
<svg id="Calque_1" data-name="Calque 1" xmlns="http://www.w3.org/2000/svg" viewBox="0 0 504.85 198.27">
  <defs>
    
  </defs>
  <g>
    <rect class="cls-8" x="18.38" y="16.49" width="158.74" height="164.11" rx="16.67" ry="16.67"></rect>
    <rect class="cls-1" x="18.38" y="16.49" width="158.74" height="164.11" rx="16.67" ry="16.67"></rect>
    <path class="cls-9" d="m138.15,49.03l-6.03-5.37c-.86-.76-1.96-1.18-3.11-1.18h-34.79c-3.34-6.29-9.96-10.58-17.58-10.58-10.99,0-19.89,8.91-19.89,19.89s8.91,19.89,19.89,19.89c7.44,0,13.92-4.09,17.34-10.14h5.8c1.71,0,3.34-.73,4.49-2l.91-1.01c1.3-1.44,3.6-1.25,4.65.37l.43.67c.63.97,2.01,1.05,2.75.16l2.6-3.16c.38-.46,1.08-.45,1.45.01l2.63,3.33c.66.84,1.93.87,2.63.06l1.2-1.38c1.25-1.43,3.53-1.21,4.49.43l.35.61c.54.93,1.84,1.06,2.56.25l7.38-8.35c.65-.74.58-1.86-.15-2.52Z"></path>
    <g>
      <path class="cls-6" d="m149.96,112.81h1.59c3.37,0,6.09-2.73,6.09-6.09s-2.73-6.09-6.09-6.09c0,0-4.37-.21-7.96,1.3-1.55-3.72-5.91-13.83-8.99-17.73-1.89-2.39-6.67-3.27-10.83-3.27h-49.24c-4.16,0-8.94.88-10.83,3.27-3.08,3.9-7.44,14.01-8.99,17.73-3.58-1.51-7.96-1.3-7.96-1.3-3.37,0-6.09,2.73-6.09,6.09s2.73,6.09,6.09,6.09h1.59c-4.65,3.36-7.68,8.83-7.68,15v26.98c0,5.05,4.1,9.15,9.15,9.15h6.44c5.05,0,9.15-4.1,9.15-9.15v-.86h67.5v.86c0,5.05,4.1,9.15,9.15,9.15h6.44c5.05,0,9.15-4.1,9.15-9.15v-26.98c0-6.18-3.03-11.64-7.68-15Z"></path>
      <ellipse class="cls-7" cx="55.05" cy="122.03" rx="9.13" ry="7.12"></ellipse>
      <ellipse class="cls-7" cx="142.63" cy="122.03" rx="9.13" ry="7.12"></ellipse>
      <path class="cls-7" d="m133.5,91.12c-1.39-2.52-2.35-6.8-10.35-6.8h-48.63c-8,0-8.96,4.28-10.35,6.8-1.39,2.52-6.4,16.62-6.4,16.62h82.12s-5.01-14.1-6.4-16.62Z"></path>
    </g>
    <path class="cls-5" d="m129.72,112.83c0,6.24-5.06,11.3-11.3,11.3s-11.3-5.06-11.3-11.3,5.06-11.3,11.3-11.3,11.3,5.06,11.3,11.3Zm-11.3-15.08c-8.33,0-15.08,6.75-15.08,15.08s6.75,15.08,15.08,15.08,15.08-6.75,15.08-15.08-6.75-15.08-15.08-15.08Z"></path>
    <circle class="cls-7" cx="68.65" cy="51.79" r="4.34"></circle>
  </g>
  <g>
    <g>
      <path class="cls-3" d="m214.9,92.87c-6.9,0-12.31-1.62-16.08-4.82-5.12-4.34-7.71-10.67-7.71-18.79,0-5.33,1.07-10.51,3.19-15.39,2.56-5.92,6.26-10.58,11-13.86,4.77-3.3,10.43-4.97,16.84-4.97s11.71,1.54,15.67,4.59c3.68,2.83,6.25,6.89,7.62,12.05.21.79.06,1.63-.4,2.31-.47.69-1.21,1.14-2.04,1.23l-7.94.9c-1.32.15-2.57-.63-3.02-1.91-.77-2.2-1.92-3.9-3.42-5.04-1.67-1.28-3.76-1.9-6.38-1.9-3.14,0-6.06.83-8.68,2.46-2.59,1.62-4.67,4.19-6.17,7.63-1.55,3.56-2.33,7.51-2.33,11.74,0,3.94.85,6.83,2.53,8.6,1.68,1.77,4.15,2.63,7.55,2.63,2.16,0,4.4-.31,6.68-.92,3.19-.86,5.53-3.35,6.19-6.52l.04-.2h-9.91c-.86,0-1.67-.38-2.21-1.05-.54-.67-.76-1.53-.58-2.38l1.37-6.58c.27-1.32,1.45-2.27,2.79-2.27h21.27c.86,0,1.67.38,2.21,1.05s.75,1.54.58,2.38l-2.75,13.11c-1.35,6.45-6.08,11.71-12.34,13.74l-.75.24c-4.18,1.29-8.49,1.94-12.83,1.94Z"></path>
      <path class="cls-4" d="m290.43,91.97h-8.01c-1.42,0-2.6-1.02-2.82-2.42l-1.39-9.19h-18.28l-5.5,10.12c-.5.92-1.46,1.49-2.5,1.49h-8.57c-1.02,0-1.94-.53-2.46-1.41-.52-.88-.52-1.95-.02-2.84l28.47-50.35c.51-.89,1.46-1.45,2.48-1.45h10.43c1.41,0,2.59,1.01,2.81,2.39l8.17,50.35c.13.83-.1,1.66-.64,2.3s-1.33,1-2.17,1Zm-24.69-23.86h10.62l-2.06-14.28-8.57,14.28Z"></path>
      <path class="cls-4" d="m345.53,91.97h-9.19c-1.23,0-2.32-.79-2.71-1.96-.97-2.91-2.71-7.27-5.18-12.97-1.34-3.07-2.73-5.13-4.13-6.11-.38-.26-1.5-.72-4.37-.72h-2.99l-4.08,19.49c-.27,1.31-1.45,2.27-2.79,2.27h-8.58c-.86,0-1.67-.38-2.21-1.05-.54-.67-.75-1.54-.58-2.38l10.54-50.35c.27-1.31,1.45-2.26,2.79-2.26h22.44c4.26,0,7.53.44,9.98,1.34,2.6.96,4.71,2.72,6.29,5.25,1.54,2.47,2.33,5.47,2.33,8.92,0,4.9-1.51,9.02-4.48,12.24-2.38,2.58-5.73,4.38-9.98,5.37.67.86,1.33,1.81,1.95,2.85,2.29,3.9,4.84,9.33,7.58,16.16.35.88.25,1.87-.28,2.66s-1.41,1.25-2.36,1.25Zm-26.19-33.14h3.58c6.95,0,9.79-.51,10.96-.93,1.58-.58,2.77-1.44,3.65-2.65.86-1.18,1.28-2.37,1.28-3.63s-.46-2.17-1.5-2.81c-.22-.13-1.31-.6-5.28-.6h-10.48l-2.21,10.62Z"></path>
      <path class="cls-3" d="m378.03,92.9c-6.9,0-12.4-2.14-16.35-6.36-3.92-4.19-5.9-10.26-5.9-18.04,0-6.21,1.28-11.99,3.82-17.17,2.56-5.24,6.18-9.31,10.75-12.1,4.56-2.79,9.6-4.2,14.96-4.2,6.09,0,11.12,1.68,14.95,5,3.56,3.09,5.78,7.24,6.62,12.35.13.76-.08,1.55-.55,2.17-.48.63-1.21,1.03-1.99,1.11l-8.24.8c-1.41.14-2.72-.81-3.05-2.2-.52-2.18-1.37-3.78-2.54-4.76-1.32-1.11-3.09-1.65-5.42-1.65-2.64,0-5.05.79-7.37,2.41-2.3,1.61-4.18,4.21-5.6,7.73-1.46,3.63-2.2,7.3-2.2,10.91s.87,6.64,2.59,8.59c1.69,1.92,3.72,2.85,6.23,2.85s4.58-.77,6.61-2.35c1.86-1.45,3.33-3.61,4.35-6.42.47-1.28,1.77-2.07,3.1-1.86l8.65,1.31c.87.13,1.62.64,2.05,1.41.43.76.5,1.65.17,2.46-2.23,5.56-5.48,9.94-9.67,13.01-4.54,3.33-9.92,5.02-15.98,5.02Zm14.26-19.74"></path>
      <path class="cls-3" d="m417.88,91.97h-8.58c-.86,0-1.67-.38-2.21-1.05-.54-.67-.75-1.54-.58-2.38l10.54-50.35c.28-1.31,1.45-2.26,2.79-2.26h8.54c.86,0,1.67.38,2.21,1.05.54.67.75,1.53.58,2.38l-10.51,50.35c-.27,1.31-1.45,2.27-2.79,2.27Zm-7.94-2.71h0Z"></path>
      <path class="cls-4" d="m475.94,91.97h-8.01c-1.42,0-2.6-1.02-2.82-2.42l-1.39-9.19h-18.28l-5.5,10.12c-.5.92-1.46,1.49-2.5,1.49h-8.57c-1.02,0-1.94-.53-2.46-1.41-.52-.88-.52-1.95-.02-2.84l28.47-50.35c.51-.89,1.46-1.45,2.48-1.45h10.43c1.41,0,2.59,1.01,2.81,2.39l8.17,50.35c.13.83-.1,1.66-.64,2.3s-1.33,1-2.17,1Zm-24.69-23.86h10.62l-2.06-14.28-8.57,14.28Z"></path>
    </g>
    <path class="cls-3" d="m227.1,149.96h-33.7c-.5,0-.98-.23-1.29-.62-.32-.39-.44-.9-.34-1.39l9.87-47.14c.16-.77.84-1.32,1.63-1.32h9.68c.5,0,.98.23,1.29.62.32.39.44.9.34,1.39l-7.78,37.26h21.94c.5,0,.98.23,1.29.61.32.39.44.9.34,1.39l-1.64,7.88c-.16.77-.84,1.33-1.63,1.33Z"></path>
    <path class="cls-3" d="m252.02,150.76c-3.47,0-6.61-.71-9.32-2.11-2.79-1.44-4.9-3.52-6.28-6.18-1.34-2.59-2.02-5.4-2.02-8.35,0-6.74,1.96-12.21,5.81-16.28,3.88-4.09,9.02-6.16,15.28-6.16,5.47,0,9.83,1.56,12.97,4.64,3.15,3.09,4.74,7.26,4.74,12.39,0,5.92-1.92,11.12-5.72,15.44-3.85,4.39-9.05,6.61-15.46,6.61Zm3.5-28.81c-1.62,0-3.02.49-4.27,1.48-1.29,1.04-2.33,2.6-3.08,4.64-.79,2.15-1.19,4.14-1.19,5.91,0,2.03.51,3.56,1.55,4.69,1.01,1.09,2.25,1.62,3.79,1.62,2.01,0,3.67-.86,5.06-2.62,2.22-2.79,3.31-6.11,3.31-10.16,0-1.75-.47-3.09-1.45-4.1-.96-.99-2.18-1.47-3.74-1.47Z"></path>
    <path class="cls-3" d="m293.01,150.76c-4.79,0-8.68-1.48-11.54-4.39-2.86-2.9-4.3-6.9-4.3-11.88,0-3.94.83-7.71,2.47-11.22,1.68-3.59,4.24-6.45,7.62-8.51,3.36-2.05,7.09-3.09,11.09-3.09,4.42,0,8.04,1.2,10.74,3.56,2.72,2.38,4.28,5.55,4.61,9.4.08.9-.58,1.71-1.48,1.8l-8.78.93c-.91.09-1.73-.56-1.83-1.47-.17-1.5-.59-2.57-1.24-3.19-.64-.6-1.49-.9-2.6-.9-1.38,0-2.65.52-3.9,1.59-1.3,1.12-2.32,2.87-3.05,5.2-.77,2.47-1.16,4.81-1.16,6.95,0,1.58.35,2.77,1.05,3.55.67.74,1.45,1.09,2.46,1.09,1.11,0,2.17-.41,3.25-1.26,1.11-.87,2.01-2.24,2.67-4.08.27-.75,1.04-1.21,1.83-1.08l8.97,1.45c.49.08.92.37,1.17.8.25.43.3.95.12,1.42-1.59,4.29-3.99,7.61-7.15,9.87-3.17,2.28-6.88,3.43-11.04,3.43Z"></path>
    <path class="cls-4" d="m327.21,150.76c-3.28,0-6.03-1.1-8.19-3.27-2.16-2.17-3.25-4.97-3.25-8.33,0-3.71,1.19-6.75,3.55-9.01,2.33-2.25,6.22-3.56,11.88-4,4.11-.34,6.36-.7,7.58-1,.22-.88.27-1.42.27-1.75,0-.49-.18-.85-.59-1.2-.47-.4-1.33-.61-2.47-.61-1.29,0-2.28.24-2.95.71-.64.45-1.06,1.09-1.3,1.96-.21.77-.94,1.29-1.75,1.22l-9-.77c-.51-.04-.97-.32-1.25-.75-.28-.43-.35-.96-.18-1.45,1.14-3.38,3.18-6.07,6.04-7.99,2.83-1.89,6.56-2.85,11.1-2.85,4.78,0,8.41,1.02,10.82,3.04,2.48,2.09,3.74,4.7,3.74,7.75,0,1.11-.1,2.3-.29,3.54-.19,1.21-.82,4.23-1.93,9.23-.87,3.94-1.31,6.69-1.31,8.19,0,1.29.24,2.77.71,4.39.15.5.05,1.04-.27,1.46-.31.42-.81.66-1.33.66h-8.97c-.74,0-1.39-.49-1.6-1.2-.1-.33-.19-.66-.26-1-.87.65-1.8,1.2-2.78,1.65-1.97.9-3.99,1.36-6,1.36Zm9.54-16.3c-5.55.68-7.47,1.61-8.12,2.1-.59.45-.85,1-.85,1.79,0,.62.2,1.09.64,1.51.46.44,1.08.65,1.9.65,1.12,0,2.15-.26,3.14-.81.97-.53,1.66-1.18,2.12-1.97.3-.52.72-1.48,1.16-3.27Z"></path>
    <path class="cls-4" d="m366.83,150.76c-3.7,0-6.38-.74-8.18-2.27-1.86-1.58-2.81-3.77-2.81-6.5,0-.75.13-2.35,1.22-7.61l2.44-11.73h-2.42c-.5,0-.97-.22-1.29-.61-.32-.39-.44-.9-.34-1.39l1.42-6.85c.16-.77.84-1.33,1.63-1.33h3.14l.85-4.14c.14-.69.7-1.21,1.39-1.31l9.54-1.4c.54-.08,1.08.11,1.46.51.37.4.53.95.42,1.48l-1.02,4.86h3.58c.5,0,.97.22,1.29.61.32.39.44.9.34,1.39l-1.42,6.85c-.16.77-.84,1.33-1.63,1.33h-4.31l-2.71,12.99c-.68,3.31-.76,4-.77,4.13,0,.28.08.35.11.38h0s.32.18,1.34.18c.16,0,.78-.02,2.9-.22.53-.05,1.05.16,1.4.55s.5.93.39,1.45l-1.45,6.85c-.14.65-.65,1.16-1.3,1.29-1.69.34-3.44.51-5.22.51Z"></path>
    <path class="cls-3" d="m389.45,150.43h-9.23c-.65,0-1.25-.29-1.66-.79-.41-.5-.57-1.15-.43-1.79l7.14-34.15c.21-.99,1.09-1.7,2.1-1.7h9.23c.65,0,1.25.29,1.66.79.41.5.57,1.15.43,1.79l-7.14,34.15c-.21.99-1.09,1.7-2.1,1.7Z"></path>
    <path class="cls-3" d="m417.05,150.76c-3.47,0-6.6-.71-9.32-2.11-2.79-1.44-4.9-3.52-6.28-6.18-1.34-2.58-2.02-5.39-2.02-8.35,0-6.74,1.96-12.21,5.81-16.28,3.88-4.09,9.02-6.16,15.28-6.16,5.47,0,9.83,1.56,12.97,4.64,3.15,3.09,4.74,7.26,4.74,12.39,0,5.92-1.92,11.12-5.72,15.44-3.85,4.39-9.05,6.61-15.46,6.61Zm3.51-28.81c-1.62,0-3.02.49-4.27,1.48-1.3,1.03-2.33,2.6-3.08,4.64-.79,2.15-1.19,4.14-1.19,5.91,0,2.03.51,3.56,1.55,4.69,1.01,1.09,2.25,1.62,3.79,1.62,2.01,0,3.67-.86,5.06-2.62,2.23-2.79,3.31-6.11,3.31-10.16,0-1.75-.47-3.09-1.44-4.1-.96-.99-2.18-1.47-3.74-1.47Z"></path>
    <path class="cls-4" d="m472.05,149.96h-9.23c-.5,0-.98-.23-1.29-.62-.32-.39-.44-.9-.34-1.39l4.05-19.39c.8-3.85.86-4.68.87-4.84,0-.95-.31-1.36-.54-1.59-.38-.37-.95-.54-1.75-.54-1,0-2.2.47-3.56,1.41-1.43.98-2.53,2.26-3.35,3.88-.43.83-1.15,2.84-2.17,7.73l-2.93,14.02c-.16.77-.84,1.33-1.63,1.33h-9.23c-.5,0-.98-.23-1.29-.62-.32-.39-.44-.9-.34-1.39l7.14-34.15c.16-.77.84-1.32,1.63-1.32h8.75c.5,0,.97.22,1.29.61.32.39.44.89.34,1.38l-.03.13c1.02-.66,2.01-1.19,2.97-1.59,2.09-.89,4.33-1.34,6.65-1.34,3.25,0,5.88.97,7.81,2.89,1.94,1.93,2.92,4.48,2.92,7.58,0,1.33-.36,3.67-1.1,7.16l-4.02,19.32c-.16.77-.84,1.33-1.63,1.33Z"></path>
    <circle class="cls-3" cx="393.29" cy="101.86" r="6.14"></circle>
  </g>
  <g>
    <g>
      <path class="cls-2" d="m191.23,180.04c-.17-.33-.3-.68-.38-1.06-.08-.37-.13-.77-.13-1.18s.07-.96.21-1.64c.14-.68.33-1.39.58-2.14.24-.75.53-1.52.85-2.31s.67-1.55,1.03-2.3c.74-1.56,1.49-2.91,2.22-4.05h-.13c-.9,0-1.74.21-2.52.62-.19.15-.37.22-.55.22-.36,0-.72-.18-1.06-.54-.79-.85-.32-1.55,1.41-2.1.81-.27,1.47-.4,1.97-.4s.9.08,1.2.24c.3.16.56.35.77.56.33.34.57.67.71,1.01.14.33.21.62.21.87s-.07.59-.22,1.01c-.15.42-.34.87-.56,1.35l-.77,1.53c-.27.53-.55,1.09-.82,1.68l-.82,1.76c-.27.59-.52,1.16-.73,1.71-.46,1.24-.7,2.29-.7,3.16,0,.52.05.96.15,1.29.33-.54.74-1.1,1.23-1.69l1.6-1.82c1.85-2.02,3.05-3.36,3.6-4.02,1.3-1.55,2.29-3.01,2.99-4.38.28-.55.42-1.04.42-1.49,0-.82-.22-1.44-.67-1.86-.16-.16-.18-.36-.06-.59.12-.23.24-.4.36-.52.3-.27.63-.41,1-.41s.69.08.95.23c.26.15.47.35.63.59.33.47.49,1.05.49,1.75s-.15,1.44-.44,2.21c-.29.78-.68,1.54-1.15,2.28-.47.74-1.01,1.46-1.62,2.16-.6.7-1.22,1.36-1.85,1.99l-3.44,3.29c-1.04,1.06-1.74,1.79-2.09,2.19-.67.76-1.1,1.25-1.29,1.49s-.36.38-.51.43-.36.07-.62.07-.52-.12-.79-.35c-.27-.23-.49-.51-.66-.84Z"></path>
      <path class="cls-2" d="m204.23,180.35c-.32-.31-.57-.7-.75-1.17-.18-.47-.28-1.03-.28-1.68s.07-1.3.23-1.97c.16-.66.39-1.3.69-1.92s.66-1.19,1.08-1.73c.42-.54.89-1.01,1.4-1.41,1.11-.86,2.26-1.29,3.45-1.29,1.56,0,2.62.7,3.18,2.09.4,1.01.42,2.23.07,3.66-.32,1.32-.9,2.53-1.75,3.63-.84,1.1-1.84,1.88-2.99,2.35-.58.23-1.14.35-1.7.35s-1.06-.07-1.49-.22c-.44-.15-.81-.37-1.13-.68Zm2.18-5.61c-.23.57-.41,1.16-.54,1.76-.13.6-.2,1.17-.19,1.71,0,.54.09.96.24,1.26.16.3.41.46.76.46s.69-.12,1.03-.36c.34-.24.67-.56.99-.97s.62-.86.9-1.39.53-1.07.74-1.64c.46-1.24.69-2.34.67-3.31,0-.85-.17-1.39-.51-1.62-.14-.09-.33-.14-.58-.14s-.53.11-.85.34c-.32.23-.64.53-.96.92s-.63.84-.92,1.35-.56,1.06-.79,1.63Z"></path>
      <path class="cls-2" d="m225.61,178.86c.17,0,.26.09.26.27,0,.67-.33,1.23-.98,1.69-.44.29-.96.44-1.55.44-.49,0-.86-.12-1.12-.35-.46-.42-.7-.92-.7-1.53,0-.76.32-1.93.95-3.5-1.17,1.6-1.99,2.67-2.46,3.2-.47.53-.88.94-1.23,1.23-.76.63-1.45.95-2.06.95-.94,0-1.57-.41-1.88-1.24-.09-.25-.14-.54-.14-.87s.05-.69.17-1.1c.11-.41.25-.83.43-1.27.17-.44.36-.89.57-1.35l.62-1.39c.79-1.78,1.08-2.84.88-3.17-.09-.15-.26-.29-.51-.44-.09-.05-.14-.15-.14-.28s.05-.26.17-.39c.11-.12.25-.23.43-.32.37-.18.74-.27,1.12-.27s.65.04.85.12c.19.08.35.18.47.31.25.25.38.54.38.84s-.05.65-.15,1.04c-.1.38-.23.8-.39,1.24s-.33.91-.52,1.39c-.52,1.25-.88,2.07-1.06,2.47l-.42.89c-.24.53-.35.91-.35,1.12s.03.37.1.46c.07.09.19.13.37.13s.39-.08.62-.25.49-.4.77-.68.57-.61.88-.99c.3-.37.6-.76.89-1.16.57-.79.99-1.42,1.25-1.9,1.61-2.89,2.47-4.4,2.58-4.53.24-.33.49-.5.75-.5s.48.03.67.09c.19.06.35.14.49.25.32.24.42.48.31.72-1.85,3.92-2.85,6.39-3,7.4-.04.35-.06.59-.06.72,0,.59.17.88.52.88.33,0,.6-.06.81-.18.21-.12.36-.18.43-.18Z"></path>
      <path class="cls-2" d="m227.16,179.11c0-.24.05-.46.15-.66.1-.2.23-.38.38-.51.32-.3.65-.45,1-.45.3,0,.46.16.46.47,0,.8.26,1.36.79,1.68.19.11.39.17.59.17s.38-.02.52-.07.28-.12.4-.22c.27-.22.41-.49.41-.8s-.07-.59-.21-.85c-.14-.26-.31-.53-.51-.82l-.65-.92c-.91-1.23-1.37-2.37-1.37-3.41,0-.86.36-1.64,1.08-2.35.82-.79,1.87-1.19,3.16-1.19,1.12,0,2,.28,2.63.84.52.45.77.98.77,1.56s-.23,1.09-.68,1.46c-.41.32-.82.44-1.23.36-.18-.04-.32-.13-.42-.28-.1-.15-.12-.32-.06-.51s.09-.39.09-.6-.04-.4-.11-.58c-.08-.18-.18-.33-.31-.45-.27-.25-.55-.38-.84-.38s-.53.03-.72.1c-.19.07-.36.16-.5.28-.3.28-.44.62-.44,1.02s.07.75.21,1.05c.14.29.31.59.51.88.2.29.42.59.66.89s.45.62.65.95c.48.78.72,1.46.72,2.05s-.12,1.08-.36,1.48c-.24.4-.56.74-.95,1.02-.83.62-1.75.94-2.78.94s-1.75-.24-2.32-.72c-.47-.4-.71-.87-.71-1.42Z"></path>
      <path class="cls-2" d="m252.59,171.36c-.24,0-.57.23-1,.69-.43.46-.81.88-1.13,1.25l-.97,1.18-1.87,2.42c-.44.85-.79,1.55-1.04,2.11l-.62,1.34c-.16.33-.3.56-.42.7-.12.13-.28.2-.48.2s-.4-.04-.58-.11c-.19-.07-.35-.17-.48-.28-.29-.25-.43-.52-.43-.81,0-.12.08-.34.25-.68l.43-.94c.14-.28.3-.63.48-1.06l.64-1.58c.9-2.27,1.34-3.74,1.34-4.4,0-.35-.11-.62-.34-.79l-.23-.16c-.08-.05-.11-.15-.11-.28s.05-.26.15-.39c.1-.12.24-.23.4-.32.34-.18.69-.27,1.03-.27s.61.04.8.11c.19.08.35.18.48.31.28.27.42.55.42.84s-.04.59-.11.88c-.07.3-.16.6-.27.9-.11.3-.23.6-.35.9-.12.29-.23.55-.33.76l-.23.5c-.06.12-.08.16-.05.12.84-1.19,1.4-1.95,1.66-2.29l.8-.97c.58-.69,1.04-1.15,1.38-1.38.68-.46,1.21-.69,1.6-.69s.71.05.98.15.5.24.7.43c.42.39.63.89.63,1.5s-.14,1.24-.41,1.91-.51,1.2-.71,1.61c-.2.41-.39.83-.58,1.25-.57,1.29-.86,2.22-.86,2.81,0,.26.21.39.62.39.32,0,.61-.07.87-.21.26-.14.43-.21.51-.21.16,0,.24.08.24.24,0,.69-.35,1.26-1.04,1.72-.46.32-.89.47-1.28.47s-.71-.04-.96-.13c-.25-.08-.48-.22-.68-.4-.45-.41-.67-.98-.67-1.71,0-.89.28-2.01.83-3.35.4-.92.69-1.54.85-1.88l.39-.82c.24-.49.35-.88.35-1.17s-.21-.43-.63-.43Z"></path>
      <path class="cls-2" d="m261.89,167.12c-.25.2-.51.35-.77.46-.26.11-.52.17-.8.17s-.43-.09-.46-.27c-.02-.1.05-.23.19-.4l.49-.51c.64-.66.96-1.25.96-1.76,0-.46-.1-.85-.29-1.16-.19-.31-.32-.53-.38-.66-.06-.13-.05-.31.04-.53.09-.22.27-.41.54-.57.27-.16.62-.24,1.04-.24s.76.19,1.01.57c.25.38.38.8.38,1.27s-.06.85-.17,1.17c-.11.32-.25.63-.43.93-.18.3-.39.58-.63.84-.24.26-.49.49-.74.69Z"></path>
      <path class="cls-2" d="m263.47,177.09c.03-.67.14-1.31.33-1.92.19-.61.44-1.21.76-1.78.32-.57.69-1.12,1.12-1.63.43-.51.89-.96,1.4-1.35,1.09-.82,2.18-1.24,3.29-1.24,1.3,0,2.17.54,2.6,1.63.15.37.22.81.22,1.31,0,.51-.1.97-.29,1.4-.18.43-.43.82-.76,1.17-.32.35-.71.66-1.15.94-.44.28-.93.51-1.45.71-1.08.39-2.23.59-3.46.6-.03.11-.05.27-.06.49s.02.46.07.72c.05.27.14.5.27.71.27.46.67.69,1.19.69.88,0,1.74-.26,2.58-.79.3-.18.54-.36.72-.55s.35-.28.48-.28.26.08.36.25c.1.17.15.35.15.56,0,.41-.11.76-.34,1.06-.96.97-2.38,1.46-4.27,1.46-1.12,0-2.01-.34-2.69-1.02-.76-.77-1.12-1.82-1.07-3.14Zm7.75-11.76c-1.46,1.29-2.66,2.12-3.6,2.47-.15.06-.31.09-.47.09s-.31-.02-.44-.07-.24-.11-.33-.18c-.2-.17-.3-.34-.3-.51s.1-.3.31-.36c.89-.3,2.13-1.11,3.74-2.42.53-.44,1.04-.91,1.53-1.42.1-.1.28-.08.55.07.5.26.77.49.8.67.28,1.73.66,2.93,1.14,3.61.1.15.02.3-.24.45-.26.15-.55.22-.88.18-.49-.03-.88-.28-1.19-.74s-.51-1.08-.62-1.84Zm-1.09,5.37c-.8,0-1.56.55-2.3,1.66-.62.96-1.12,2.09-1.5,3.4,1.27-.13,2.37-.64,3.3-1.53.86-.83,1.29-1.63,1.29-2.39s-.26-1.14-.79-1.14Z"></path>
      <path class="cls-2" d="m280.8,178.11c.22,0,.33.15.33.45,0,.25-.08.5-.23.74-.21.45-.62.87-1.23,1.27-.7.46-1.4.68-2.11.68-1.22,0-2-.55-2.32-1.66-.39-1.32.19-4.11,1.74-8.38-.87-.08-1.35-.23-1.42-.46-.02-.07-.03-.14-.03-.23s.04-.17.11-.28c.07-.11.17-.21.28-.31.27-.22.54-.33.81-.33h.9c.82-1.95,1.41-3.06,1.75-3.33.17-.12.35-.18.56-.18s.38.03.51.08.26.13.36.23c.24.23.36.49.36.77,0,.15-.05.33-.14.53l-.84,1.86h.27c.47,0,.85,0,1.14-.01h.65c.14-.02.32-.02.54-.02s.32.08.32.24c0,1.02-1.19,1.53-3.56,1.53h-.09l-.77,2.03c-.87,2.4-1.31,4.09-1.31,5.05,0,.27.06.48.18.63.12.15.35.23.68.23s.64-.06.91-.17.51-.24.72-.39c.21-.14.38-.27.53-.39.15-.12.28-.17.38-.17Z"></path>
      <path class="cls-2" d="m282.48,177.09c.03-.67.14-1.31.33-1.92.19-.61.44-1.21.76-1.78.32-.57.69-1.12,1.12-1.63.43-.51.89-.96,1.4-1.35,1.09-.82,2.18-1.24,3.29-1.24,1.3,0,2.17.54,2.6,1.63.15.37.22.81.22,1.31,0,.51-.1.97-.28,1.4-.18.43-.44.82-.76,1.17-.32.35-.71.66-1.15.94-.44.28-.93.51-1.45.71-1.08.39-2.23.59-3.46.6-.03.11-.05.27-.06.49s.02.46.07.72c.05.27.14.5.27.71.27.46.67.69,1.19.69.88,0,1.74-.26,2.58-.79.3-.18.54-.36.72-.55.19-.19.35-.28.48-.28s.26.08.36.25c.1.17.15.35.15.56,0,.41-.11.76-.34,1.06-.96.97-2.38,1.46-4.27,1.46-1.12,0-2.01-.34-2.69-1.02-.76-.77-1.12-1.82-1.07-3.14Zm6.65-6.38c-.8,0-1.56.55-2.3,1.66-.62.96-1.12,2.09-1.5,3.4,1.27-.13,2.37-.64,3.3-1.53.86-.83,1.29-1.63,1.29-2.39s-.26-1.14-.79-1.14Z"></path>
      <path class="cls-2" d="m292.63,179.11c0-.24.05-.46.15-.66.1-.2.23-.38.38-.51.32-.3.65-.45,1-.45.3,0,.46.16.46.47,0,.8.26,1.36.79,1.68.19.11.39.17.59.17s.38-.02.52-.07.28-.12.4-.22c.27-.22.41-.49.41-.8s-.07-.59-.21-.85c-.14-.26-.31-.53-.51-.82l-.65-.92c-.91-1.23-1.37-2.37-1.37-3.41,0-.86.36-1.64,1.08-2.35.82-.79,1.87-1.19,3.16-1.19,1.12,0,2,.28,2.63.84.52.45.77.98.77,1.56s-.23,1.09-.68,1.46c-.41.32-.82.44-1.23.36-.18-.04-.32-.13-.42-.28-.1-.15-.12-.32-.06-.51s.09-.39.09-.6-.04-.4-.11-.58c-.08-.18-.18-.33-.31-.45-.27-.25-.55-.38-.84-.38s-.53.03-.72.1c-.19.07-.36.16-.5.28-.3.28-.44.62-.44,1.02s.07.75.21,1.05c.14.29.31.59.51.88.2.29.42.59.66.89s.45.62.65.95c.48.78.72,1.46.72,2.05s-.12,1.08-.36,1.48c-.24.4-.56.74-.95,1.02-.83.62-1.75.94-2.78.94s-1.75-.24-2.32-.72c-.47-.4-.71-.87-.71-1.42Z"></path>
      <path class="cls-2" d="m311.9,180.04c-.02.11-.18.72-.5,1.83-.31,1.1-.58,1.98-.79,2.62-.48,1.45-.87,2.35-1.19,2.7-.25.28-.55.42-.91.42-.43,0-.76-.22-.99-.65-.07-.12-.1-.26-.1-.41s.11-.48.34-.98c.6-1.27,1.4-3.78,2.4-7.51.4-1.48.67-2.49.8-3.02l.36-1.45c.24-.96.37-1.6.42-1.95.04-.34.02-.59-.06-.73-.08-.14-.18-.25-.28-.32-.11-.07-.21-.14-.3-.19s-.13-.15-.11-.29c.02-.14.08-.27.19-.39.11-.12.25-.22.42-.31.34-.16.69-.24,1.03-.24s.62.04.81.13.36.2.49.35c.27.3.4.59.36.88-.08.59-.16,1.1-.25,1.53,1.33-1.92,2.71-2.88,4.14-2.88,1.3,0,2.17.68,2.61,2.05.15.48.23,1.06.23,1.75s-.1,1.37-.31,2.06c-.21.69-.48,1.34-.83,1.96s-.76,1.18-1.22,1.7c-.46.52-.95.97-1.47,1.36-1.09.8-2.13,1.2-3.1,1.2s-1.7-.41-2.19-1.21Zm1.76-4.93c-.28.54-.5,1.08-.67,1.62-.17.54-.26,1.03-.26,1.48s.1.82.29,1.1c.19.29.47.43.84.43s.74-.1,1.11-.31c.37-.2.73-.48,1.07-.83.35-.35.67-.75.97-1.22.3-.47.56-.96.78-1.49.48-1.14.72-2.22.72-3.25,0-.55-.07-.99-.22-1.29-.14-.31-.37-.46-.67-.46s-.61.12-.94.35c-.33.24-.67.55-1.03.94-.36.39-.71.84-1.06,1.34-.35.5-.66,1.03-.94,1.57Z"></path>
      <path class="cls-2" d="m331.32,178.07c0,.71.25,1.06.74,1.06.34,0,.62-.05.85-.16.22-.11.37-.16.45-.16.16,0,.24.08.24.25,0,.66-.34,1.23-1.03,1.71-.72.5-1.46.62-2.21.37-.49-.18-.86-.56-1.09-1.14-.11-.3-.17-.57-.17-.82,0-.4.04-.82.11-1.27-.71,1.46-1.58,2.47-2.63,3.03-.42.22-.86.32-1.33.32s-.88-.1-1.22-.29c-.35-.2-.64-.47-.88-.82-.49-.72-.72-1.63-.67-2.73.05-1.37.44-2.72,1.2-4.03.69-1.23,1.56-2.24,2.62-3.02,1.06-.79,2.04-1.19,2.96-1.19s1.66.43,2.22,1.28c.52-.86.99-1.28,1.39-1.28.43,0,.76.08.98.24.42.31.57.58.44.81-1.91,3.96-2.89,6.43-2.94,7.4-.02.14-.02.29-.02.44Zm-6.32.05c0,.92.29,1.39.88,1.39.45,0,1-.39,1.65-1.16.96-1.13,1.8-2.66,2.54-4.58.24-.6.43-1.2.59-1.8-.03-.52-.25-.91-.65-1.16-.14-.08-.34-.13-.61-.13s-.58.1-.95.3c-.36.2-.71.47-1.05.82-.34.35-.65.76-.95,1.23-.29.47-.55.99-.77,1.54-.46,1.19-.7,2.37-.7,3.54Z"></path>
      <path class="cls-2" d="m334.43,179.11c0-.24.05-.46.15-.66.1-.2.23-.38.38-.51.32-.3.65-.45,1-.45.3,0,.46.16.46.47,0,.8.26,1.36.79,1.68.19.11.39.17.59.17s.38-.02.52-.07.28-.12.4-.22c.27-.22.41-.49.41-.8s-.07-.59-.21-.85c-.14-.26-.31-.53-.51-.82l-.65-.92c-.91-1.23-1.37-2.37-1.37-3.41,0-.86.36-1.64,1.08-2.35.82-.79,1.87-1.19,3.16-1.19,1.12,0,2,.28,2.63.84.52.45.77.98.77,1.56s-.23,1.09-.68,1.46c-.41.32-.82.44-1.23.36-.18-.04-.32-.13-.42-.28-.1-.15-.12-.32-.06-.51s.09-.39.09-.6-.04-.4-.11-.58c-.08-.18-.18-.33-.31-.45-.27-.25-.55-.38-.84-.38s-.53.03-.72.1c-.19.07-.36.16-.5.28-.3.28-.44.62-.44,1.02s.07.75.21,1.05c.14.29.31.59.51.88.2.29.42.59.66.89s.45.62.65.95c.48.78.72,1.46.72,2.05s-.12,1.08-.36,1.48c-.24.4-.56.74-.95,1.02-.83.62-1.75.94-2.78.94s-1.75-.24-2.32-.72c-.47-.4-.71-.87-.71-1.42Z"></path>
      <path class="cls-2" d="m360.98,170.71c.53-.46.98-.69,1.33-.69.21,0,.43.08.65.24.41.31.58.57.51.8-.02.08-.06.18-.1.3l-.15.39c-.11.31-.22.59-.34.84-.12.25-.27.59-.46,1.01-1.28,3.1-2.1,5.17-2.44,6.21-.35,1.04-.59,1.85-.75,2.43-.35,1.28-.52,2.2-.52,2.76,0,.8.04,1.33.13,1.59.09.26.12.44.09.55-.03.11-.08.2-.17.27-.17.14-.38.21-.64.21s-.49-.05-.68-.14-.38-.24-.54-.44c-.35-.45-.51-1.11-.48-1.95.02-1.13.54-2.9,1.57-5.33l.74-1.73c-.62.96-1.14,1.63-1.57,2.03-.88.8-1.75,1.2-2.6,1.2-1.3,0-2.16-.69-2.58-2.06-.14-.47-.22-1.05-.22-1.73s.1-1.37.3-2.06c.2-.69.47-1.34.82-1.96.35-.62.75-1.19,1.21-1.7.46-.52.95-.97,1.46-1.35,1.09-.81,2.13-1.21,3.11-1.21s1.74.51,2.29,1.54Zm-5.86,8.81c.78,0,1.68-.77,2.7-2.32,1.05-1.6,1.78-3.35,2.2-5.24-.03-.52-.25-.91-.65-1.16-.14-.08-.34-.13-.62-.13s-.6.1-.97.31c-.37.2-.72.48-1.06.83-.34.35-.65.75-.95,1.22-.3.47-.55.96-.77,1.48-.47,1.12-.71,2.23-.71,3.34s.28,1.66.83,1.66Zm5.75-8.72s-.03.01-.03.04l.03-.04Z"></path>
      <path class="cls-2" d="m374.53,178.86c.17,0,.26.09.26.27,0,.67-.33,1.23-.98,1.69-.44.29-.96.44-1.55.44-.49,0-.86-.12-1.12-.35-.46-.42-.7-.92-.7-1.53,0-.76.32-1.93.95-3.5-1.17,1.6-1.99,2.67-2.46,3.2-.47.53-.88.94-1.23,1.23-.76.63-1.45.95-2.06.95-.94,0-1.57-.41-1.88-1.24-.09-.25-.14-.54-.14-.87s.05-.69.17-1.1c.11-.41.25-.83.43-1.27.17-.44.36-.89.57-1.35l.62-1.39c.79-1.78,1.08-2.84.88-3.17-.09-.15-.26-.29-.51-.44-.09-.05-.14-.15-.14-.28s.05-.26.17-.39c.11-.12.25-.23.43-.32.37-.18.74-.27,1.12-.27s.65.04.85.12c.19.08.35.18.47.31.25.25.38.54.38.84s-.05.65-.15,1.04c-.1.38-.23.8-.39,1.24s-.33.91-.52,1.39c-.52,1.25-.88,2.07-1.06,2.47l-.42.89c-.24.53-.35.91-.35,1.12s.03.37.1.46c.07.09.19.13.37.13s.38-.08.62-.25.49-.4.77-.68.57-.61.88-.99c.3-.37.6-.76.89-1.16.57-.79.99-1.42,1.25-1.9,1.61-2.89,2.47-4.4,2.58-4.53.24-.33.49-.5.75-.5s.48.03.67.09c.19.06.35.14.49.25.32.24.42.48.31.72-1.85,3.92-2.85,6.39-3,7.4-.04.35-.06.59-.06.72,0,.59.17.88.52.88.33,0,.6-.06.81-.18.21-.12.36-.18.43-.18Z"></path>
      <path class="cls-2" d="m381.23,167.12c-.25.2-.51.35-.77.46-.26.11-.52.17-.8.17s-.43-.09-.46-.27c-.02-.1.05-.23.19-.4l.49-.51c.64-.66.96-1.25.96-1.76,0-.46-.09-.85-.28-1.16-.19-.31-.32-.53-.38-.66-.06-.13-.05-.31.04-.53.09-.22.27-.41.54-.57.27-.16.62-.24,1.04-.24s.76.19,1.01.57c.25.38.38.8.38,1.27s-.05.85-.16,1.17c-.11.32-.25.63-.43.93-.18.3-.39.58-.63.84-.24.26-.49.49-.74.69Z"></path>
      <path class="cls-2" d="m393.33,178.86c.17,0,.26.09.26.27,0,.67-.33,1.23-.98,1.69-.44.29-.96.44-1.55.44-.49,0-.86-.12-1.12-.35-.46-.42-.7-.92-.7-1.53,0-.76.32-1.93.95-3.5-1.17,1.6-1.99,2.67-2.46,3.2-.47.53-.88.94-1.23,1.23-.76.63-1.45.95-2.06.95-.94,0-1.57-.41-1.88-1.24-.09-.25-.14-.54-.14-.87s.05-.69.17-1.1c.11-.41.25-.83.43-1.27.17-.44.36-.89.57-1.35l.62-1.39c.79-1.78,1.08-2.84.88-3.17-.09-.15-.26-.29-.51-.44-.09-.05-.14-.15-.14-.28s.05-.26.17-.39c.11-.12.25-.23.43-.32.37-.18.74-.27,1.12-.27s.65.04.85.12c.19.08.35.18.47.31.25.25.38.54.38.84s-.05.65-.15,1.04c-.1.38-.23.8-.39,1.24s-.33.91-.52,1.39c-.52,1.25-.88,2.07-1.06,2.47l-.42.89c-.24.53-.35.91-.35,1.12s.03.37.1.46c.07.09.19.13.37.13s.39-.08.62-.25c.24-.17.49-.4.78-.68.28-.29.57-.61.88-.99.3-.37.6-.76.89-1.16.57-.79.99-1.42,1.25-1.9,1.61-2.89,2.47-4.4,2.58-4.53.24-.33.49-.5.75-.5s.48.03.67.09c.19.06.35.14.49.25.32.24.42.48.31.72-1.85,3.92-2.85,6.39-3,7.4-.04.35-.06.59-.06.72,0,.59.17.88.52.88.33,0,.6-.06.81-.18.21-.12.36-.18.43-.18Z"></path>
      <path class="cls-2" d="m403.63,171.36c-.24,0-.57.23-1,.69-.43.46-.81.88-1.13,1.25l-.97,1.18-1.87,2.42c-.44.85-.79,1.55-1.04,2.11l-.62,1.34c-.16.33-.3.56-.42.7-.12.13-.28.2-.48.2s-.4-.04-.58-.11c-.19-.07-.35-.17-.48-.28-.29-.25-.43-.52-.43-.81,0-.12.08-.34.25-.68l.43-.94c.14-.28.3-.63.48-1.06l.64-1.58c.9-2.27,1.34-3.74,1.34-4.4,0-.35-.11-.62-.34-.79l-.23-.16c-.08-.05-.11-.15-.11-.28s.05-.26.15-.39c.1-.12.24-.23.4-.32.34-.18.69-.27,1.03-.27s.61.04.8.11c.19.08.35.18.48.31.28.27.42.55.42.84s-.04.59-.11.88c-.07.3-.16.6-.27.9-.11.3-.23.6-.35.9-.12.29-.23.55-.33.76l-.23.5c-.06.12-.08.16-.05.12.84-1.19,1.4-1.95,1.66-2.29l.8-.97c.58-.69,1.04-1.15,1.38-1.38.68-.46,1.21-.69,1.6-.69s.71.05.98.15c.27.1.5.24.69.43.42.39.63.89.63,1.5s-.14,1.24-.41,1.91-.51,1.2-.71,1.61c-.2.41-.39.83-.58,1.25-.57,1.29-.85,2.22-.85,2.81,0,.26.2.39.61.39.32,0,.61-.07.87-.21.26-.14.43-.21.51-.21.16,0,.24.08.24.24,0,.69-.35,1.26-1.04,1.72-.46.32-.89.47-1.28.47s-.71-.04-.96-.13c-.25-.08-.48-.22-.68-.4-.45-.41-.67-.98-.67-1.71,0-.89.28-2.01.83-3.35.4-.92.69-1.54.85-1.88l.39-.82c.23-.49.35-.88.35-1.17s-.21-.43-.63-.43Z"></path>
      <path class="cls-2" d="m415.26,177.15c.02-.67.12-1.34.31-2.01.19-.67.45-1.3.77-1.89.32-.59.71-1.14,1.15-1.64.44-.5.93-.93,1.45-1.29,1.09-.76,2.25-1.14,3.45-1.14s2.09.5,2.54,1.51c.16.36.23.77.22,1.23-.01.46-.09.88-.22,1.26-.14.38-.31.72-.51,1.02-.46.68-.93,1.02-1.4,1.02-.52,0-.91-.15-1.16-.44-.22-.25-.29-.55-.21-.89.02-.1.09-.19.21-.27.11-.08.26-.21.43-.39.49-.52.75-1.14.77-1.84.02-.48-.27-.72-.87-.72-.64,0-1.31.36-2.01,1.09-1.02,1.06-1.74,2.41-2.15,4.06-.36,1.43-.3,2.48.2,3.14.3.39.7.58,1.21.58.86,0,1.69-.31,2.48-.92.24-.19.44-.39.59-.59.15-.2.29-.3.42-.3s.24.06.32.19c.09.13.13.29.13.49,0,.45-.2.9-.6,1.34-1.03,1-2.27,1.5-3.73,1.5-1.24,0-2.2-.36-2.87-1.07-.67-.71-.99-1.72-.96-3.03Z"></path>
      <path class="cls-2" d="m426.54,180.68c-.19-.2-.34-.46-.46-.77-.12-.31-.18-.67-.18-1.09s.09-.97.28-1.66c.19-.69.42-1.48.71-2.37l.96-2.88c1.36-4.01,2.15-7.11,2.36-9.29.07-.65.38-.97.94-.97.35,0,.64.08.87.25.44.34.65.72.64,1.13-.02.42-.09.92-.22,1.52-.13.6-.3,1.25-.5,1.95-.21.7-.44,1.45-.71,2.24l-1.57,4.69c-.9,2.67-1.36,4.39-1.36,5.17,0,.42.17.62.5.62s.61-.07.87-.21c.26-.14.43-.21.51-.21.16,0,.24.08.24.24,0,.69-.35,1.26-1.04,1.72-.46.32-.89.47-1.27.47s-.69-.05-.93-.14c-.24-.09-.45-.24-.64-.44Z"></path>
      <path class="cls-2" d="m436.13,178.98c.2,0,.3.13.3.39,0,.35-.16.71-.47,1.08-.46.54-1.07.81-1.83.81-.88,0-1.48-.36-1.81-1.09-.12-.25-.18-.56-.18-.92s.06-.76.19-1.21c.12-.44.28-.91.47-1.4.19-.49.39-.98.61-1.49l.6-1.46c.44-1.09.66-1.8.66-2.15s-.04-.58-.11-.69c-.07-.11-.15-.2-.23-.26l-.23-.16c-.08-.05-.11-.15-.11-.28s.05-.26.15-.39c.1-.12.24-.23.4-.32.34-.18.74-.27,1.2-.27,1.12,0,1.67.3,1.67.89,0,.69-.18,1.49-.54,2.38-.36.89-.66,1.61-.91,2.16l-.68,1.6c-.5,1.17-.75,2.02-.75,2.53,0,.34.17.51.5.51s.57-.04.74-.13.29-.13.36-.13Zm2.34-12.51c-.17.18-.36.33-.57.44-.21.11-.44.18-.67.21-.24.03-.46,0-.67-.11-.21-.1-.39-.24-.54-.43-.33-.39-.49-.77-.49-1.17s.06-.69.19-.88c.12-.2.28-.36.47-.48.36-.24.71-.36,1.03-.36s.57.02.75.07c.18.05.34.12.5.23.37.25.56.56.56.93s-.05.67-.15.91c-.1.24-.24.45-.4.64Z"></path>
      <path class="cls-2" d="m438.91,177.09c.03-.67.14-1.31.33-1.92.19-.61.44-1.21.76-1.78.32-.57.69-1.12,1.12-1.63.43-.51.89-.96,1.4-1.35,1.09-.82,2.18-1.24,3.29-1.24,1.3,0,2.17.54,2.6,1.63.15.37.22.81.22,1.31,0,.51-.1.97-.28,1.4-.18.43-.43.82-.76,1.17-.32.35-.71.66-1.15.94-.44.28-.93.51-1.45.71-1.08.39-2.23.59-3.46.6-.03.11-.05.27-.06.49s.02.46.07.72c.05.27.14.5.27.71.27.46.67.69,1.19.69.88,0,1.74-.26,2.58-.79.3-.18.54-.36.72-.55s.35-.28.48-.28.26.08.36.25c.1.17.15.35.15.56,0,.41-.11.76-.34,1.06-.96.97-2.38,1.46-4.27,1.46-1.12,0-2.01-.34-2.69-1.02-.76-.77-1.12-1.82-1.07-3.14Zm6.65-6.38c-.8,0-1.56.55-2.3,1.66-.62.96-1.12,2.09-1.5,3.4,1.27-.13,2.37-.64,3.3-1.53.86-.83,1.29-1.63,1.29-2.39s-.26-1.14-.79-1.14Z"></path>
      <path class="cls-2" d="m457.84,171.36c-.24,0-.57.23-1,.69-.43.46-.81.88-1.13,1.25l-.97,1.18-1.87,2.42c-.44.85-.79,1.55-1.04,2.11l-.62,1.34c-.16.33-.3.56-.42.7-.12.13-.28.2-.48.2s-.4-.04-.58-.11c-.19-.07-.35-.17-.48-.28-.29-.25-.43-.52-.43-.81,0-.12.08-.34.25-.68l.43-.94c.14-.28.3-.63.48-1.06l.64-1.58c.9-2.27,1.34-3.74,1.34-4.4,0-.35-.11-.62-.34-.79l-.23-.16c-.08-.05-.11-.15-.11-.28s.05-.26.15-.39c.1-.12.24-.23.4-.32.34-.18.69-.27,1.03-.27s.61.04.8.11c.19.08.35.18.48.31.28.27.42.55.42.84s-.04.59-.11.88c-.07.3-.16.6-.27.9-.11.3-.23.6-.35.9-.12.29-.23.55-.33.76l-.23.5c-.06.12-.08.16-.05.12.84-1.19,1.4-1.95,1.66-2.29l.8-.97c.58-.69,1.04-1.15,1.38-1.38.68-.46,1.21-.69,1.6-.69s.71.05.98.15c.27.1.5.24.69.43.42.39.63.89.63,1.5s-.14,1.24-.41,1.91c-.27.66-.51,1.2-.71,1.61-.2.41-.39.83-.58,1.25-.57,1.29-.85,2.22-.85,2.81,0,.26.2.39.61.39.32,0,.61-.07.87-.21.26-.14.43-.21.51-.21.16,0,.24.08.24.24,0,.69-.35,1.26-1.04,1.72-.46.32-.89.47-1.28.47s-.71-.04-.96-.13c-.25-.08-.48-.22-.68-.4-.45-.41-.67-.98-.67-1.71,0-.89.28-2.01.83-3.35.4-.92.69-1.54.85-1.88l.39-.82c.23-.49.35-.88.35-1.17s-.21-.43-.63-.43Z"></path>
      <path class="cls-2" d="m469.16,178.11c.22,0,.33.15.33.45,0,.25-.08.5-.23.74-.2.45-.61.87-1.23,1.27-.7.46-1.4.68-2.11.68-1.22,0-2-.55-2.32-1.66-.39-1.32.19-4.11,1.74-8.38-.87-.08-1.35-.23-1.42-.46-.02-.07-.03-.14-.03-.23s.04-.17.11-.28c.07-.11.16-.21.28-.31.27-.22.54-.33.81-.33h.9c.82-1.95,1.41-3.06,1.76-3.33.17-.12.35-.18.56-.18s.38.03.51.08.26.13.36.23c.24.23.36.49.36.77,0,.15-.05.33-.14.53l-.84,1.86h.27c.47,0,.85,0,1.14-.01h.65c.14-.02.32-.02.54-.02s.32.08.32.24c0,1.02-1.19,1.53-3.56,1.53h-.09l-.77,2.03c-.87,2.4-1.31,4.09-1.31,5.05,0,.27.06.48.18.63.12.15.35.23.68.23s.64-.06.91-.17.51-.24.72-.39c.21-.14.38-.27.53-.39.15-.12.28-.17.38-.17Z"></path>
    </g>
    <path class="cls-2" d="m477.33,180.56c-.2-.19-.35-.42-.47-.67-.11-.25-.17-.54-.17-.87s.06-.62.19-.88c.13-.26.29-.47.48-.63.34-.28.71-.42,1.09-.42s.71.03.98.08c.27.05.52.14.75.25.55.28.83.69.83,1.21,0,.66-.22,1.24-.65,1.73-.4.46-.82.71-1.26.75-.44.04-.79.01-1.06-.1-.27-.11-.51-.26-.71-.46Zm2.2-4.64c-.43,0-.65-.61-.65-1.83,0-1.69.44-3.85,1.33-6.5.79-2.36,1.69-4.24,2.69-5.62.54-.75,1.08-1.2,1.62-1.34.28-.07.54-.11.78-.11s.46.02.64.05.35.09.49.16c.31.14.46.32.46.54s-.09.45-.26.7-.46.67-.84,1.27-.84,1.38-1.36,2.35c-1.25,2.32-2.47,5.06-3.65,8.23-.12.32-.23.6-.31.86-.08.26-.17.48-.26.67-.19.39-.41.58-.69.58Z"></path>
  </g>
</svg>